HIERARCHY
ROOT Hips
{
	OFFSET 0.000000 0.000000 0.000000 
	CHANNELS 6 Xposition Yposition Zposition Yrotation Zrotation Xrotation 
	JOINT Lumbar
	{
		OFFSET 0.000000 0.000000 0.000000 
		CHANNELS 3 Zrotation Xrotation Yrotation
		JOINT Neck
		{
			OFFSET 0.000000 0.445665 0.000000 
			CHANNELS 3 Zrotation Xrotation Yrotation
			End Site
			{
				OFFSET 0.000000 0.227535 0.000000 
			}
		}
		JOINT RightShoulder
		{
			OFFSET 0.019635 0.377685 0.194865 
			CHANNELS 3 Zrotation Xrotation Yrotation
			JOINT RightElbow
			{
				OFFSET 0.000000 -0.243375 0.000000 
				CHANNELS 2 Zrotation Yrotation
				JOINT RightWrist
				{
					OFFSET 0.000000 -0.264825 0.000000 
					CHANNELS 2 Zrotation Xrotation
					End Site
					{
						OFFSET 0.006600 -0.176220 0.000990 
					}
				}
			}
		}
		JOINT LeftShoulder
		{
			OFFSET 0.019635 0.377685 -0.194865 
			CHANNELS 3 Zrotation Xrotation Yrotation
			JOINT LeftElbow
			{
				OFFSET 0.000000 -0.243375 0.000000 
				CHANNELS 2 Zrotation Yrotation
				JOINT LeftWrist
				{
					OFFSET 0.000000 -0.264825 0.000000 
					CHANNELS 2 Zrotation Xrotation
					End Site
					{
						OFFSET 0.006600 -0.176220 -0.000990 
					}
				}
			}
		}
	}
	JOINT RightHip
	{
		OFFSET 0.052140 -0.069960 0.075570 
		CHANNELS 3 Zrotation Xrotation Yrotation
		JOINT RightKnee
		{
			OFFSET 0.000000 -0.402270 0.000000 
			CHANNELS 1 Zrotation
			JOINT RightAnkle
			{
				OFFSET 0.000000 -0.404085 0.000000 
				CHANNELS 3 Zrotation Xrotation Yrotation
				End Site
				{
					OFFSET 0.204105 -0.089430 0.008415 
				}
			}
		}
	}
	JOINT LeftHip
	{
		OFFSET 0.052140 -0.069960 -0.075570 
		CHANNELS 3 Zrotation Xrotation Yrotation
		JOINT LeftKnee
		{
			OFFSET 0.000000 -0.402270 0.000000 
			CHANNELS 1 Zrotation
			JOINT LeftAnkle
			{
				OFFSET 0.000000 -0.404085 0.000000 
				CHANNELS 3 Zrotation Xrotation Yrotation
				End Site
				{
					OFFSET 0.204105 -0.089430 -0.008415 
				}
			}
		}
	}
}
MOTION
Frames: 14
Frame Time: 0.02
-0 0.95578 0 190.61497 0 -4.21881 4.56266 5.33114 -3.17902 -7.65286 3.03301 -2.10007 -5.15323 -11.70723 -82.85506 5.32787 71.85567 -5.42983 2.05376 -6.78333 3.61262 90.03063 5.32845 -70.30649 -9.44384 1.07852 -3.285 6.43091 7.72881 -5.62031 1.67343 -4.3554 -6.83798 -2.36646 0.99137 -7.56525 -5.498 5.6612 5.66131 8.13743
0.00064 0.95571 -0.00015 190.53516 0 -4.22149 4.62761 5.31397 -3.18496 -7.90155 3.19076 -2.0722 -3.84535 -12.03677 -72.69666 5.32689 72.43514 -4.88131 2.35263 -5.06121 3.60882 87.6288 5.32786 -71.14907 -8.81092 0.78038 -3.22543 6.43289 7.83645 -5.64705 1.66952 -4.36184 -6.8505 -2.3652 0.91402 -9.20464 -5.47144 5.49238 5.70169 9.86008
0.00128 0.95563 -0.00031 190.45592 0 -4.22415 4.69268 5.29674 -3.19091 -8.14996 3.34773 -2.04438 -2.53658 -12.3648 -62.58607 5.32853 73.01387 -4.33634 2.64427 -3.34039 3.60638 85.19492 5.3288 -71.98703 -8.18183 0.48643 -3.16628 6.43482 7.94304 -5.6732 1.66535 -4.36821 -6.86268 -2.36347 0.83761 -10.82364 -5.44546 5.3255 5.74223 11.56157
0.00191 0.95556 -0.00046 190.37796 0 -4.2268 4.75838 5.27919 -3.19755 -8.39827 3.50376 -2.01681 -1.21711 -12.69096 -52.57039 5.33786 73.5968 -3.79896 2.90945 -1.61556 3.60928 82.60138 5.33151 -72.81284 -7.56128 0.20556 -3.10799 6.43669 8.04705 -5.69789 1.66055 -4.37445 -6.87408 -2.36059 0.76473 -12.37006 -5.42021 5.16498 5.78475 13.18853
0.00255 0.95548 -0.00061 190.29295 0 -4.22959 4.82017 5.26341 -3.20124 -8.6454 3.66558 -1.98826 0.03889 -13.02822 -42.0551 5.30316 74.15926 -3.21984 3.31429 0.07893 3.58386 80.84379 5.31966 -73.70073 -6.89475 -0.14561 -3.04485 6.43904 8.16542 -5.73102 1.65961 -4.38149 -6.89014 -2.36473 0.67381 -14.29249 -5.38942 4.97108 5.81795 15.20219
0.00319 0.95541 -0.00076 190.22312 0 -4.23203 4.89053 5.24385 -3.21069 -8.89592 3.81443 -1.96162 1.43248 -13.34084 -32.60495 5.36387 74.76323 -2.73062 3.42368 1.84206 3.61837 77.32664 5.34212 -74.45797 -6.32663 -0.34704 -2.99223 6.44024 8.25285 -5.74581 1.65015 -4.38676 -6.89596 -2.3534 0.62071 -15.42349 -5.37151 4.84775 5.87003 16.40148
0.00383 0.95538 -0.00091 190.19402 0 -4.23388 4.98437 5.21337 -3.241 -9.15386 3.93455 -1.94168 3.22002 -13.59783 -25.96216 5.67938 75.51395 -2.477 2.68639 3.79927 3.82549 68.61548 5.43249 -74.84951 -6.02053 -0.1302 -2.96655 6.43944 8.25761 -5.71296 1.61929 -4.38778 -6.87649 -2.30196 0.67789 -14.27144 -5.38139 4.92524 5.98489 15.25518
0.00446 0.95538 -0.00105 190.18095 0 -4.23531 5.08703 5.17913 -3.27627 -9.41595 4.04008 -1.92356 5.1455 -13.82744 -20.41524 6.09224 76.30186 -2.31653 1.65522 5.82692 4.09212 58.18122 5.56149 -75.11049 -5.81543 0.23771 -2.95174 6.43729 8.2305 -5.66142 1.57959 -4.38694 -6.84649 -2.23401 0.77214 -12.33746 -5.40638 5.07306 6.11727 13.30315
0.00509 0.95536 -0.00119 190.16065 0 -4.23671 5.18587 5.1469 -3.30607 -9.67766 4.14823 -1.90347 7.00156 -14.06246 -14.44167 6.46785 77.05233 -2.12095 0.77816 7.82217 4.32707 48.74008 5.69174 -75.4349 -5.56985 0.53308 -2.9335 6.43495 8.21638 -5.6159 1.54228 -4.38647 -6.81885 -2.17232 0.84587 -10.82261 -5.42867 5.1848 6.23451 11.78123
0.00574 0.95533 -0.00135 190.13803 0 -4.23907 5.28381 5.11341 -3.34939 -9.93271 4.27461 -1.88759 8.88738 -14.3292 -8.15439 6.81778 77.88791 -1.89355 -0.18372 9.81966 4.58122 38.40766 5.7469 -75.74198 -5.30063 0.84273 -2.90942 6.43588 8.20917 -5.57912 1.51108 -4.3878 -6.7999 -2.11736 0.93555 -9.03704 -5.43059 5.31349 6.38087 9.98987
0.00635 0.95535 -0.00147 190.12668 0 -4.23926 5.38582 5.08165 -3.36582 -10.20293 4.3579 -1.86417 10.74196 -14.52076 -2.79783 7.23948 78.55692 -1.75631 -1.04105 11.8281 4.80996 29.52965 5.96225 -76.0541 -5.10567 1.16113 -2.8994 6.42984 8.17924 -5.52184 1.46602 -4.3852 -6.76228 -2.04262 1.00024 -7.63164 -5.48199 5.42411 6.47223 8.56788
0.00687 0.95549 -0.00149 190.1204 0 -4.23426 5.49587 5.0556 -3.30593 -10.51142 4.33992 -1.81267 12.4936 -14.53378 0.40142 7.87674 78.73998 -1.82889 -1.51632 13.85869 4.95037 25.02713 6.65639 -76.41127 -5.08212 1.44261 -2.93026 6.40372 8.1019 -5.3968 1.37746 -4.37047 -6.6602 -1.93258 0.99165 -7.45013 -5.6374 5.46332 6.39479 8.36685
0.00736 0.95568 -0.00147 190.12928 0 -4.22707 5.6098 5.03144 -3.21896 -10.83534 4.27638 -1.75482 14.20508 -14.46789 2.67129 8.57487 78.75636 -1.9913 -1.87891 15.89507 5.06396 22.0621 7.50159 -76.77699 -5.13155 1.73077 -2.97313 6.37114 8.00214 -5.25653 1.27722 -4.35256 -6.54319 -1.80009 0.95568 -7.68164 -5.84798 5.48289 6.26379 8.56462
0.00785 0.95585 -0.00145 190.1454 0 -4.22029 5.72275 5.00637 -3.14496 -11.15411 4.22454 -1.70432 15.92483 -14.42353 5.2769 9.21847 78.8614 -2.12424 -2.30889 17.92426 5.19203 18.42993 8.24789 -77.14086 -5.15333 2.03351 -3.00857 6.34191 7.90681 -5.13127 1.18646 -4.33676 -6.44241 -1.66816 0.92915 -7.73498 -6.05161 5.51403 6.16555 8.57724
